<svg height="77" viewBox="0 0 77 77" width="77" xmlns="http://www.w3.org/2000/svg"><g fill="none" fill-rule="evenodd"><rect fill="#444" height="76.5" rx="12.096" stroke="#979797" stroke-width=".5" width="76.5" x=".25" y=".25"/><g fill="#30dc8f" transform="translate(14 15)"><rect height="19.633867" rx="1.763597" width="21.358464"/><g transform="translate(28.916074 27.524027)"><rect height="19.633867" rx=".881798" width="5.750356" x="6.982575"/><path d="m7.87627858-.04081885h3.96294782c.4870038 0 .8817984.39479459.8817984.8817984v17.95190815c0 .4870038-.3947946.8817984-.8817984.8817984h-3.96294782c-.48700381 0-.8817984-.3947946-.8817984-.8817984v-17.95190815c0-.48700381.39479459-.8817984.8817984-.8817984z" transform="matrix(0 1 -1 0 19.674686 -.040818)"/></g><ellipse cx="38.773827" cy="9.816934" rx="9.857752" ry="9.816934"/><path d="m11.9935989 27.5240275 11.9935988 19.6338672h-23.9871977z"/></g></g></svg>