<?xml version="1.0" encoding="UTF-8"?>
<svg width="1438px" height="1438px" viewBox="0 0 1438 1438" version="1.1" xmlns="http://www.w3.org/2000/svg" xmlns:xlink="http://www.w3.org/1999/xlink">
    <title>Group 4 Copy 3</title>
    <g id="Page-1" stroke="none" stroke-width="1" fill="none" fill-rule="evenodd">
        <g id="Group-4-Copy-3" transform="translate(719.000000, 719.000000) rotate(-7.000000) translate(-719.000000, -719.000000) translate(74.000000, 74.000000)">
            <rect id="Rectangle-Copy-14" stroke="#30DC8F" stroke-width="42" fill="#444444" x="21" y="21" width="1248" height="1248" rx="202.608"></rect>
            <g id="Group-6" transform="translate(197.000000, 210.000000)" fill="#30DC8F">
                <rect id="Rectangle-Copy-13" x="4.54747351e-12" y="0" width="393.513514" height="361.802213" rx="32.494271"></rect>
                <g id="Group-Copy" transform="translate(532.756757, 507.197787)">
                    <rect id="Rectangle-Copy-5" x="128.648649" y="0" width="105.945946" height="361.802213" rx="16.2471355"></rect>
                    <path d="M145.105934,-0.720515255 L218.137309,-0.720515255 C227.110354,-0.720515255 234.384444,6.55357509 234.384444,15.5266203 L234.384444,346.275592 C234.384444,355.248638 227.110354,362.522728 218.137309,362.522728 L145.105934,362.522728 C136.132889,362.522728 128.858799,355.248638 128.858799,346.275592 L128.858799,15.5266203 C128.858799,6.55357509 136.132889,-0.720515255 145.105934,-0.720515255 Z" id="Rectangle-Copy-12" transform="translate(181.621622, 180.901106) rotate(-270.000000) translate(-181.621622, -180.901106) "></path>
                </g>
                <ellipse id="Oval-Copy" cx="714.378378" cy="180.901106" rx="181.621622" ry="180.901106"></ellipse>
                <polygon id="Triangle-Copy" points="220.972973 507.197787 441.945946 869 0 869"></polygon>
            </g>
        </g>
    </g>
</svg>